# xmcd CD database file
#
# Track frame offsets:
#	150
#	22992
#	51955
#	77584
#	96806
#	126086
#	147168
#	168484
#	204270
#	225689
#	244478
#	261710
#	279531
#	298568
#
# Disc length: 4196 seconds
#
# Revision: 0
# Processed by: cddbd v1.5.2PL0 Copyright (c) Steve Scherf et al.
# Submitted via: CDex 1.70beta2
#
DISCID=cc10620e
DTITLE=Joey Pastrana - The Best Of Joey Pastrana And His Orquesta
DYEAR=2008
DGENRE=Salsa
TTITLE0=En Nada Estas
TTITLE1=Monte Pastrana
TTITLE2=Rumbon Melon
TTITLE3=King Of Latin Soul
TTITLE4=Chacabun
TTITLE5=La Guida
TTITLE6=Salsa Y Guaguanco
TTITLE7=El Pulpo
TTITLE8=Dance Donna Dance
TTITLE9=Orquesta Pastrana
TTITLE10=Pastrana Llego'
TTITLE11=Jala Con Joey
TTITLE12=Coca Que Buena Es
TTITLE13=Que Dulce Es
EXTD=YEAR: 2008
EXTT0=
EXTT1=
EXTT2=
EXTT3=
EXTT4=
EXTT5=
EXTT6=
EXTT7=
EXTT8=
EXTT9=
EXTT10=
EXTT11=
EXTT12=
EXTT13=
PLAYORDER=
